<?xml version="1.0" encoding="UTF-8"?>
<svg xmlns="http://www.w3.org/2000/svg" width="700" height="580" viewBox="0 0 700 580">
<defs>
  <marker id="bib-arr" markerWidth="9" markerHeight="7" refX="8" refY="3.5" orient="auto"><polygon points="0 0,9 3.5,0 7" fill="#222"/></marker>
  <marker id="bib-inh" markerWidth="8" markerHeight="8" refX="8" refY="4" orient="auto"><path d="M8,0 L8,8 M0,4 L8,4" stroke="#888" stroke-width="1.4" fill="none"/></marker>
</defs>
<rect x="0" y="0" width="700" height="580" fill="#fff"/>
<rect x="4" y="4" width="692" height="572" fill="#fff" stroke="#444" stroke-width="1.8"/>
<rect x="10" y="10" width="680" height="560" fill="none" stroke="#ccc" stroke-width="0.6"/>
<text x="350" y="33" font-family="'Courier New',monospace" font-size="14" font-weight="bold" text-anchor="middle" fill="#111">도 9  약물 전달 제어 흐름도</text>
<line x1="14" y1="43" x2="686" y2="43" stroke="#999" stroke-width="0.8"/>
<!-- 외부 경계: 의료 기기 시스템 -->
<rect x="30" y="55" width="640" height="400" rx="0" fill="none" stroke="#bbb" stroke-width="1" stroke-dasharray="10 5"/>
<text x="50" y="70" font-family="Arial,sans-serif" font-size="9" fill="#ccc" font-weight="bold">약물 전달 시스템 (DRUG DELIVERY SYSTEM · 1000)</text>
<!-- 환자 입력부 -->
<ellipse cx="110" cy="160" rx="65" ry="38" fill="#f5f5f5" stroke="#222" stroke-width="1.8"/>
<text x="110" y="156" font-family="Arial,sans-serif" font-size="10" font-weight="bold" text-anchor="middle" fill="#111">환자 모니터</text>
<text x="110" y="170" font-family="Arial,sans-serif" font-size="9" text-anchor="middle" fill="#555">Patient Mon. (100)</text>
<!-- 투여량 계산 모듈 -->
<rect x="240" y="138" width="140" height="44" rx="2" fill="#fff" stroke="#222" stroke-width="1.8"/>
<text x="310" y="158" font-family="Arial,sans-serif" font-size="11" font-weight="bold" text-anchor="middle" fill="#111">투여량 계산</text>
<text x="310" y="172" font-family="Arial,sans-serif" font-size="9" text-anchor="middle" fill="#555">Dose Calc. (110)</text>
<!-- 안전 검증 (마름모 대신 오각형 느낌) -->
<polygon points="455,160 540,130 580,160 540,190 455,160" fill="#fafafa" stroke="#222" stroke-width="1.8"/>
<text x="520" y="157" font-family="Arial,sans-serif" font-size="10" font-weight="bold" text-anchor="middle" fill="#111">안전</text>
<text x="520" y="170" font-family="Arial,sans-serif" font-size="8" text-anchor="middle" fill="#555">검증 (120)</text>
<!-- 펌프 제어 (중앙 메인) -->
<rect x="220" y="250" width="320" height="80" rx="2" fill="#efefef" stroke="#111" stroke-width="2.2"/>
<text x="380" y="280" font-family="Arial,sans-serif" font-size="13" font-weight="bold" text-anchor="middle" fill="#111">약물 펌프 제어기</text>
<text x="310" y="302" font-family="Arial,sans-serif" font-size="9" text-anchor="middle" fill="#555">[유량 조절 (211)]</text>
<text x="450" y="302" font-family="Arial,sans-serif" font-size="9" text-anchor="middle" fill="#555">[압력 감지 (212)]</text>
<text x="380" y="316" font-family="Arial,sans-serif" font-size="9" text-anchor="middle" fill="#777">(200)</text>
<!-- 카테터/주사 장치 -->
<ellipse cx="380" cy="420" rx="70" ry="35" fill="#f5f5f5" stroke="#222" stroke-width="1.8"/>
<text x="380" y="416" font-family="Arial,sans-serif" font-size="11" font-weight="bold" text-anchor="middle" fill="#111">카테터</text>
<text x="380" y="432" font-family="Arial,sans-serif" font-size="9" text-anchor="middle" fill="#555">Catheter (300)</text>
<!-- 경보 모듈 -->
<rect x="560" y="258" width="110" height="64" rx="2" fill="#fff8f8" stroke="#c44" stroke-width="1.4" stroke-dasharray="5 2"/>
<text x="615" y="282" font-family="Arial,sans-serif" font-size="10" font-weight="bold" text-anchor="middle" fill="#c44">경보 장치</text>
<text x="615" y="298" font-family="Arial,sans-serif" font-size="9" text-anchor="middle" fill="#c44">Alert (400)</text>
<text x="615" y="312" font-family="Arial,sans-serif" font-size="8" text-anchor="middle" fill="#c44">비상 정지</text>
<!-- 연결 화살표 -->
<line x1="175" y1="160" x2="240" y2="160" stroke="#222" stroke-width="1.5" marker-end="url(#bib-arr)"/>
<line x1="380" y1="160" x2="455" y2="160" stroke="#222" stroke-width="1.5" marker-end="url(#bib-arr)"/>
<!-- 안전검증 YES → 펌프 제어 -->
<line x1="520" y1="190" x2="520" y2="230" stroke="#222" stroke-width="1.5"/>
<line x1="520" y1="230" x2="540" y2="250" stroke="#222" stroke-width="1.5" marker-end="url(#bib-arr)"/>
<!-- 투여량 계산 → 펌프 제어 -->
<line x1="310" y1="182" x2="310" y2="250" stroke="#222" stroke-width="1.5" marker-end="url(#bib-arr)"/>
<!-- 안전검증 NO → 경보 -->
<line x1="540" y1="160" x2="615" y2="160" stroke="#c44" stroke-width="1.3" stroke-dasharray="5 2"/>
<line x1="615" y1="160" x2="615" y2="258" stroke="#c44" stroke-width="1.3" stroke-dasharray="5 2" marker-end="url(#bib-arr)"/>
<text x="575" y="155" font-family="Arial,sans-serif" font-size="8" fill="#c44">이상</text>
<!-- 펌프 → 카테터 -->
<line x1="380" y1="330" x2="380" y2="385" stroke="#222" stroke-width="1.5" marker-end="url(#bib-arr)"/>
<!-- 경보 → 펌프 (정지 신호) -->
<line x1="560" y1="290" x2="540" y2="290" stroke="#c44" stroke-width="1.2" stroke-dasharray="5 2" marker-end="url(#bib-inh)"/>
<!-- 타이틀 블록 -->
<line x1="14" y1="512" x2="686" y2="512" stroke="#888" stroke-width="0.8"/>
<line x1="234" y1="512" x2="234" y2="550" stroke="#ccc" stroke-width="0.5"/>
<line x1="468" y1="512" x2="468" y2="550" stroke="#ccc" stroke-width="0.5"/>
<text x="22" y="528" font-family="'Courier New',monospace" font-size="11" font-weight="bold" fill="#333">도 9</text>
<text x="22" y="543" font-family="Arial,sans-serif" font-size="9" fill="#777">약물 전달 제어 흐름도</text>
<text x="350" y="528" font-family="Arial,sans-serif" font-size="9" text-anchor="middle" fill="#999">SCALE : N.T.S  |  UNIT : —</text>
<text x="678" y="528" font-family="'Courier New',monospace" font-size="8" text-anchor="end" fill="#aaa">PYPI AI · 특허청 기준</text>
<text x="678" y="543" font-family="Arial,sans-serif" font-size="7" text-anchor="end" fill="#bbb">AUTO GENERATED</text>
</svg>
