<?xml version="1.0" encoding="UTF-8"?>
<svg xmlns="http://www.w3.org/2000/svg" width="700" height="580" viewBox="0 0 700 580">
<defs>
  <marker id="cha-arr" markerWidth="9" markerHeight="7" refX="8" refY="3.5" orient="auto"><polygon points="0 0,9 3.5,0 7" fill="#222"/></marker>
  <pattern id="cha-diag" patternUnits="userSpaceOnUse" width="6" height="6" patternTransform="rotate(45)">
    <line x1="0" y1="0" x2="0" y2="6" stroke="#ddd" stroke-width="1"/>
  </pattern>
</defs>
<rect x="0" y="0" width="700" height="580" fill="#fff"/>
<rect x="4" y="4" width="692" height="572" fill="#fff" stroke="#444" stroke-width="1.8"/>
<rect x="10" y="10" width="680" height="560" fill="none" stroke="#ccc" stroke-width="0.6"/>
<text x="350" y="33" font-family="'Courier New',monospace" font-size="14" font-weight="bold" text-anchor="middle" fill="#111">도 10  화학 반응 공정 흐름도</text>
<line x1="14" y1="43" x2="686" y2="43" stroke="#999" stroke-width="0.8"/>
<!-- 원료 투입 (탱크 모양) -->
<rect x="40" y="80" width="90" height="80" rx="4" fill="#f5f5f5" stroke="#222" stroke-width="1.8"/>
<rect x="40" y="80" width="90" height="20" rx="4" fill="#efefef" stroke="#222" stroke-width="1"/>
<text x="85" y="136" font-family="Arial,sans-serif" font-size="10" font-weight="bold" text-anchor="middle" fill="#222">원료 A</text>
<text x="85" y="151" font-family="Arial,sans-serif" font-size="8" text-anchor="middle" fill="#777">Feed A (100)</text>
<rect x="40" y="200" width="90" height="80" rx="4" fill="#f5f5f5" stroke="#222" stroke-width="1.8"/>
<rect x="40" y="200" width="90" height="20" rx="4" fill="#efefef" stroke="#222" stroke-width="1"/>
<text x="85" y="256" font-family="Arial,sans-serif" font-size="10" font-weight="bold" text-anchor="middle" fill="#222">원료 B</text>
<text x="85" y="271" font-family="Arial,sans-serif" font-size="8" text-anchor="middle" fill="#777">Feed B (110)</text>
<!-- 반응기 (원형 탱크) -->
<ellipse cx="260" cy="200" rx="80" ry="100" fill="#f8f8f8" stroke="#222" stroke-width="2"/>
<ellipse cx="260" cy="200" rx="80" ry="20" fill="#efefef" stroke="#222" stroke-width="1.4"/>
<text x="260" y="200" font-family="Arial,sans-serif" font-size="11" font-weight="bold" text-anchor="middle" fill="#222">반응기</text>
<text x="260" y="216" font-family="Arial,sans-serif" font-size="9" text-anchor="middle" fill="#555">Reactor (200)</text>
<text x="260" y="232" font-family="Arial,sans-serif" font-size="8" text-anchor="middle" fill="#888">T=120°C · P=2bar</text>
<!-- 교반기 표시 -->
<line x1="260" y1="170" x2="260" y2="290" stroke="#777" stroke-width="1.6"/>
<path d="M240,230 L260,250 L280,230" fill="none" stroke="#777" stroke-width="1.4"/>
<path d="M240,260 L260,280 L280,260" fill="none" stroke="#777" stroke-width="1.4"/>
<!-- 분리기 -->
<rect x="400" y="110" width="100" height="180" rx="3" fill="#f8f8f8" stroke="#222" stroke-width="1.8"/>
<line x1="400" y1="190" x2="500" y2="190" stroke="#555" stroke-width="1" stroke-dasharray="4 2"/>
<text x="450" y="160" font-family="Arial,sans-serif" font-size="10" font-weight="bold" text-anchor="middle" fill="#222">분리기</text>
<text x="450" y="175" font-family="Arial,sans-serif" font-size="8" text-anchor="middle" fill="#555">Separator (300)</text>
<text x="450" y="225" font-family="Arial,sans-serif" font-size="8" text-anchor="middle" fill="#777">잔류물</text>
<!-- 제품 수집 탱크 -->
<rect x="570" y="80" width="100" height="80" rx="4" fill="#f5f5f5" stroke="#222" stroke-width="1.8"/>
<rect x="570" y="80" width="100" height="20" rx="4" fill="#efefef" stroke="#222" stroke-width="1"/>
<text x="620" y="136" font-family="Arial,sans-serif" font-size="10" font-weight="bold" text-anchor="middle" fill="#222">제품</text>
<text x="620" y="151" font-family="Arial,sans-serif" font-size="8" text-anchor="middle" fill="#777">Product (400)</text>
<!-- 폐기물 처리 -->
<rect x="570" y="240" width="100" height="60" rx="4" fill="#fff8f8" stroke="#c44" stroke-width="1.4"/>
<text x="620" y="268" font-family="Arial,sans-serif" font-size="10" font-weight="bold" text-anchor="middle" fill="#c44">폐기물 처리</text>
<text x="620" y="283" font-family="Arial,sans-serif" font-size="8" text-anchor="middle" fill="#c44">Waste (500)</text>
<!-- 열교환기 (위쪽) -->
<rect x="160" y="355" width="200" height="50" rx="2" fill="#f5f5f5" stroke="#333" stroke-width="1.6"/>
<text x="260" y="375" font-family="Arial,sans-serif" font-size="10" font-weight="bold" text-anchor="middle" fill="#222">열교환기</text>
<text x="260" y="390" font-family="Arial,sans-serif" font-size="8" text-anchor="middle" fill="#777">Heat Exchanger (210)</text>
<!-- 연결 라인 -->
<line x1="130" y1="120" x2="180" y2="160" stroke="#222" stroke-width="1.5" marker-end="url(#cha-arr)"/>
<line x1="130" y1="240" x2="180" y2="210" stroke="#222" stroke-width="1.5" marker-end="url(#cha-arr)"/>
<!-- 반응기 → 분리기 -->
<line x1="340" y1="190" x2="400" y2="155" stroke="#222" stroke-width="1.5" marker-end="url(#cha-arr)"/>
<!-- 분리기 → 제품 -->
<line x1="500" y1="140" x2="570" y2="130" stroke="#222" stroke-width="1.5" marker-end="url(#cha-arr)"/>
<!-- 분리기 → 폐기물 -->
<line x1="500" y1="240" x2="570" y2="260" stroke="#c44" stroke-width="1.3" stroke-dasharray="5 2" marker-end="url(#cha-arr)"/>
<!-- 반응기 → 열교환기 (재순환) -->
<line x1="260" y1="300" x2="260" y2="355" stroke="#555" stroke-width="1.3" stroke-dasharray="5 3" marker-end="url(#cha-arr)"/>
<!-- 공정 변수 표시 -->
<text x="175" y="145" font-family="'Courier New',monospace" font-size="8" fill="#888">F=10L/min</text>
<text x="350" y="183" font-family="'Courier New',monospace" font-size="8" fill="#888">→ 분리</text>
<!-- 참조번호 -->
<circle cx="650" cy="200" r="12" fill="#fff" stroke="#555" stroke-width="1.1"/>
<text x="650" y="204" font-family="Arial,sans-serif" font-size="9" font-weight="bold" text-anchor="middle" fill="#333">200</text>
<!-- 타이틀 블록 -->
<line x1="14" y1="512" x2="686" y2="512" stroke="#888" stroke-width="0.8"/>
<line x1="234" y1="512" x2="234" y2="550" stroke="#ccc" stroke-width="0.5"/>
<line x1="468" y1="512" x2="468" y2="550" stroke="#ccc" stroke-width="0.5"/>
<text x="22" y="528" font-family="'Courier New',monospace" font-size="11" font-weight="bold" fill="#333">도 10</text>
<text x="22" y="543" font-family="Arial,sans-serif" font-size="9" fill="#777">화학 반응 공정 흐름도</text>
<text x="350" y="528" font-family="Arial,sans-serif" font-size="9" text-anchor="middle" fill="#999">SCALE : N.T.S  |  UNIT : —</text>
<text x="678" y="528" font-family="'Courier New',monospace" font-size="8" text-anchor="end" fill="#aaa">PYPI AI · 특허청 기준</text>
<text x="678" y="543" font-family="Arial,sans-serif" font-size="7" text-anchor="end" fill="#bbb">AUTO GENERATED</text>
</svg>
