<?xml version="1.0" encoding="UTF-8"?>
<svg xmlns="http://www.w3.org/2000/svg" width="700" height="560" viewBox="0 0 700 560">
<defs>
  <marker id="cb-arr" markerWidth="9" markerHeight="7" refX="8" refY="3.5" orient="auto"><polygon points="0 0,9 3.5,0 7" fill="#222"/></marker>
  <pattern id="cb-hatch" patternUnits="userSpaceOnUse" width="5" height="5" patternTransform="rotate(45)">
    <line x1="0" y1="0" x2="0" y2="5" stroke="#ddd" stroke-width="0.7"/>
  </pattern>
</defs>
<rect x="0" y="0" width="700" height="560" fill="#fff"/>
<rect x="4" y="4" width="692" height="552" fill="#fff" stroke="#444" stroke-width="1.8"/>
<rect x="10" y="10" width="680" height="540" fill="none" stroke="#ccc" stroke-width="0.6"/>
<text x="350" y="33" font-family="'Courier New',monospace" font-size="14" font-weight="bold" text-anchor="middle" fill="#111">도 5  신호 처리 회로도</text>
<line x1="14" y1="43" x2="686" y2="43" stroke="#999" stroke-width="0.8"/>
<!-- VCC 라인 -->
<line x1="30" y1="75" x2="670" y2="75" stroke="#555" stroke-width="2" stroke-dasharray="12 4"/>
<text x="40" y="68" font-family="'Courier New',monospace" font-size="9" fill="#888">VCC (+3.3V)</text>
<!-- GND 라인 -->
<line x1="30" y1="455" x2="670" y2="455" stroke="#555" stroke-width="2" stroke-dasharray="12 4"/>
<text x="40" y="468" font-family="'Courier New',monospace" font-size="9" fill="#888">GND (0V)</text>
<!-- 센서 IC (좌측) -->
<rect x="50" y="110" width="130" height="160" rx="2" fill="#f8f8f8" stroke="#222" stroke-width="1.8"/>
<text x="115" y="133" font-family="'Courier New',monospace" font-size="10" font-weight="bold" text-anchor="middle" fill="#111">IC-401</text>
<text x="115" y="148" font-family="Arial,sans-serif" font-size="9" text-anchor="middle" fill="#555">센서 I/F</text>
<line x1="50" y1="165" x2="36" y2="165" stroke="#333" stroke-width="1.3"/><text x="33" y="169" font-family="'Courier New',monospace" font-size="8" text-anchor="end" fill="#666">SEN1</text>
<line x1="50" y1="190" x2="36" y2="190" stroke="#333" stroke-width="1.3"/><text x="33" y="194" font-family="'Courier New',monospace" font-size="8" text-anchor="end" fill="#666">SEN2</text>
<line x1="50" y1="215" x2="36" y2="215" stroke="#333" stroke-width="1.3"/><text x="33" y="219" font-family="'Courier New',monospace" font-size="8" text-anchor="end" fill="#666">VREF</text>
<line x1="180" y1="180" x2="200" y2="180" stroke="#333" stroke-width="1.3"/><text x="203" y="184" font-family="'Courier New',monospace" font-size="8" fill="#666">OUT</text>
<line x1="115" y1="110" x2="115" y2="75" stroke="#aaa" stroke-width="1"/>
<circle cx="115" cy="75" r="3" fill="#555"/>
<line x1="115" y1="270" x2="115" y2="455" stroke="#aaa" stroke-width="1"/>
<circle cx="115" cy="455" r="3" fill="#555"/>
<!-- DSP IC (중앙) -->
<rect x="260" y="90" width="180" height="280" rx="2" fill="#efefef" stroke="#111" stroke-width="2.4"/>
<text x="350" y="115" font-family="'Courier New',monospace" font-size="11" font-weight="bold" text-anchor="middle" fill="#111">DSP-500</text>
<text x="350" y="132" font-family="Arial,sans-serif" font-size="9" text-anchor="middle" fill="#555">디지털 신호 처리기</text>
<line x1="260" y1="160" x2="240" y2="160" stroke="#333" stroke-width="1.3"/><text x="237" y="164" font-family="'Courier New',monospace" font-size="8" text-anchor="end" fill="#666">ADC_IN</text>
<line x1="260" y1="185" x2="240" y2="185" stroke="#333" stroke-width="1.3"/><text x="237" y="189" font-family="'Courier New',monospace" font-size="8" text-anchor="end" fill="#666">CLK</text>
<line x1="260" y1="210" x2="240" y2="210" stroke="#333" stroke-width="1.3"/><text x="237" y="214" font-family="'Courier New',monospace" font-size="8" text-anchor="end" fill="#666">RST</text>
<line x1="440" y1="160" x2="460" y2="160" stroke="#333" stroke-width="1.3"/><text x="463" y="164" font-family="'Courier New',monospace" font-size="8" fill="#666">DAC_OUT</text>
<line x1="440" y1="185" x2="460" y2="185" stroke="#333" stroke-width="1.3"/><text x="463" y="189" font-family="'Courier New',monospace" font-size="8" fill="#666">IRQ</text>
<line x1="440" y1="210" x2="460" y2="210" stroke="#333" stroke-width="1.3"/><text x="463" y="214" font-family="'Courier New',monospace" font-size="8" fill="#666">SPI_CS</text>
<line x1="350" y1="90" x2="350" y2="75" stroke="#aaa" stroke-width="1"/>
<circle cx="350" cy="75" r="3" fill="#555"/>
<line x1="350" y1="370" x2="350" y2="455" stroke="#aaa" stroke-width="1"/>
<circle cx="350" cy="455" r="3" fill="#555"/>
<!-- 출력 IC (우측) -->
<rect x="520" y="110" width="130" height="160" rx="2" fill="#f8f8f8" stroke="#222" stroke-width="1.8"/>
<text x="585" y="133" font-family="'Courier New',monospace" font-size="10" font-weight="bold" text-anchor="middle" fill="#111">IC-601</text>
<text x="585" y="148" font-family="Arial,sans-serif" font-size="9" text-anchor="middle" fill="#555">출력 드라이버</text>
<line x1="520" y1="165" x2="500" y2="165" stroke="#333" stroke-width="1.3"/><text x="497" y="169" font-family="'Courier New',monospace" font-size="8" text-anchor="end" fill="#666">IN</text>
<line x1="650" y1="185" x2="666" y2="185" stroke="#333" stroke-width="1.3"/><text x="669" y="189" font-family="'Courier New',monospace" font-size="8" fill="#666">OUT</text>
<line x1="585" y1="110" x2="585" y2="75" stroke="#aaa" stroke-width="1"/>
<circle cx="585" cy="75" r="3" fill="#555"/>
<line x1="585" y1="270" x2="585" y2="455" stroke="#aaa" stroke-width="1"/>
<circle cx="585" cy="455" r="3" fill="#555"/>
<!-- IC-401 → DSP -->
<line x1="200" y1="180" x2="240" y2="180" stroke="#222" stroke-width="1.4" marker-end="url(#cb-arr)"/>
<!-- DSP → IC-601 -->
<line x1="460" y1="160" x2="500" y2="160" stroke="#222" stroke-width="1.4" marker-end="url(#cb-arr)"/>
<!-- 크리스탈 오실레이터 (하단 가운데) -->
<line x1="350" y1="390" x2="350" y2="403" stroke="#333" stroke-width="1.2"/>
<rect x="330" y="403" width="40" height="22" fill="#fff" stroke="#444" stroke-width="1.4"/>
<line x1="350" y1="425" x2="350" y2="438" stroke="#333" stroke-width="1.2"/>
<text x="378" y="418" font-family="'Courier New',monospace" font-size="9" fill="#777">XTAL 16MHz</text>
<!-- L1 인덕터 -->
<path d="M460,210 Q465,205 470,210 Q475,205 480,210 Q485,205 490,210 Q495,205 500,210" fill="none" stroke="#444" stroke-width="1.4"/>
<text x="480" y="228" font-family="'Courier New',monospace" font-size="8" text-anchor="middle" fill="#777">L1 10μH</text>
<!-- 참조번호 -->
<circle cx="650" cy="195" r="12" fill="#fff" stroke="#555" stroke-width="1.1"/>
<text x="650" y="199" font-family="Arial,sans-serif" font-size="9" font-weight="bold" text-anchor="middle" fill="#333">500</text>
<!-- 타이틀 블록 -->
<line x1="14" y1="512" x2="686" y2="512" stroke="#888" stroke-width="0.8"/>
<line x1="234" y1="512" x2="234" y2="550" stroke="#ccc" stroke-width="0.5"/>
<line x1="468" y1="512" x2="468" y2="550" stroke="#ccc" stroke-width="0.5"/>
<text x="22" y="528" font-family="'Courier New',monospace" font-size="11" font-weight="bold" fill="#333">도 5</text>
<text x="22" y="543" font-family="Arial,sans-serif" font-size="9" fill="#777">신호 처리 회로도</text>
<text x="350" y="528" font-family="Arial,sans-serif" font-size="9" text-anchor="middle" fill="#999">SCALE : N.T.S  |  UNIT : —</text>
<text x="678" y="528" font-family="'Courier New',monospace" font-size="8" text-anchor="end" fill="#aaa">PYPI AI · 특허청 기준</text>
<text x="678" y="543" font-family="Arial,sans-serif" font-size="7" text-anchor="end" fill="#bbb">AUTO GENERATED</text>
</svg>
