<?xml version="1.0" encoding="UTF-8"?>
<svg xmlns="http://www.w3.org/2000/svg" width="680" height="580" viewBox="0 0 680 580">
<defs>
  <pattern id="mb-h1" patternUnits="userSpaceOnUse" width="5" height="5" patternTransform="rotate(45)">
    <line x1="0" y1="0" x2="0" y2="5" stroke="#bbb" stroke-width="0.7"/>
  </pattern>
  <pattern id="mb-h2" patternUnits="userSpaceOnUse" width="4" height="4" patternTransform="rotate(-45)">
    <line x1="0" y1="0" x2="0" y2="4" stroke="#ccc" stroke-width="0.6"/>
  </pattern>
  <marker id="mb-dim" markerWidth="6" markerHeight="6" refX="3" refY="3" orient="auto"><line x1="0" y1="0" x2="0" y2="6" stroke="#555" stroke-width="1"/></marker>
</defs>
<rect x="0" y="0" width="680" height="580" fill="#fff"/>
<rect x="4" y="4" width="672" height="572" fill="#fff" stroke="#444" stroke-width="1.8"/>
<rect x="10" y="10" width="660" height="560" fill="none" stroke="#ccc" stroke-width="0.6"/>
<text x="340" y="33" font-family="'Courier New',monospace" font-size="14" font-weight="bold" text-anchor="middle" fill="#111">도 6  기어 조립 단면도</text>
<line x1="14" y1="43" x2="666" y2="43" stroke="#999" stroke-width="0.8"/>
<!-- 기어 하우징 외곽 -->
<rect x="100" y="65" width="480" height="330" rx="0" fill="#f9f9f9" stroke="#222" stroke-width="2.2"/>
<rect x="100" y="65" width="28" height="330" fill="url(#mb-h1)"/>
<rect x="552" y="65" width="28" height="330" fill="url(#mb-h1)"/>
<rect x="100" y="65" width="480" height="26" fill="url(#mb-h2)"/>
<rect x="100" y="369" width="480" height="26" fill="url(#mb-h2)"/>
<line x1="128" y1="65" x2="128" y2="395" stroke="#555" stroke-width="1"/>
<line x1="552" y1="65" x2="552" y2="395" stroke="#555" stroke-width="1"/>
<line x1="100" y1="91" x2="580" y2="91" stroke="#555" stroke-width="1"/>
<line x1="100" y1="369" x2="580" y2="369" stroke="#555" stroke-width="1"/>
<!-- 구동 기어 (좌측 원형) -->
<circle cx="220" cy="228" r="80" fill="#efefef" stroke="#222" stroke-width="2"/>
<circle cx="220" cy="228" r="60" fill="#fff" stroke="#333" stroke-width="1.2"/>
<circle cx="220" cy="228" r="10" fill="#555" stroke="#222" stroke-width="1.4"/>
<!-- 기어 이 (8개) -->
<rect x="296" y="222" width="18" height="12" rx="1" fill="#ddd" stroke="#444" stroke-width="1" transform="rotate(0,220,228)"/>
<rect x="296" y="222" width="18" height="12" rx="1" fill="#ddd" stroke="#444" stroke-width="1" transform="rotate(45,220,228)"/>
<rect x="296" y="222" width="18" height="12" rx="1" fill="#ddd" stroke="#444" stroke-width="1" transform="rotate(90,220,228)"/>
<rect x="296" y="222" width="18" height="12" rx="1" fill="#ddd" stroke="#444" stroke-width="1" transform="rotate(135,220,228)"/>
<rect x="296" y="222" width="18" height="12" rx="1" fill="#ddd" stroke="#444" stroke-width="1" transform="rotate(180,220,228)"/>
<rect x="296" y="222" width="18" height="12" rx="1" fill="#ddd" stroke="#444" stroke-width="1" transform="rotate(225,220,228)"/>
<rect x="296" y="222" width="18" height="12" rx="1" fill="#ddd" stroke="#444" stroke-width="1" transform="rotate(270,220,228)"/>
<rect x="296" y="222" width="18" height="12" rx="1" fill="#ddd" stroke="#444" stroke-width="1" transform="rotate(315,220,228)"/>
<text x="220" y="228" font-family="Arial,sans-serif" font-size="9" text-anchor="middle" fill="#999">G1</text>
<text x="220" y="320" font-family="Arial,sans-serif" font-size="10" font-weight="bold" text-anchor="middle" fill="#555">구동 기어 (110)</text>
<!-- 종동 기어 (우측 원형, 더 작음) -->
<circle cx="440" cy="228" r="55" fill="#efefef" stroke="#222" stroke-width="2"/>
<circle cx="440" cy="228" r="38" fill="#fff" stroke="#333" stroke-width="1.2"/>
<circle cx="440" cy="228" r="8" fill="#555" stroke="#222" stroke-width="1.4"/>
<rect x="491" y="223" width="14" height="10" rx="1" fill="#ddd" stroke="#444" stroke-width="1" transform="rotate(0,440,228)"/>
<rect x="491" y="223" width="14" height="10" rx="1" fill="#ddd" stroke="#444" stroke-width="1" transform="rotate(51,440,228)"/>
<rect x="491" y="223" width="14" height="10" rx="1" fill="#ddd" stroke="#444" stroke-width="1" transform="rotate(102,440,228)"/>
<rect x="491" y="223" width="14" height="10" rx="1" fill="#ddd" stroke="#444" stroke-width="1" transform="rotate(153,440,228)"/>
<rect x="491" y="223" width="14" height="10" rx="1" fill="#ddd" stroke="#444" stroke-width="1" transform="rotate(204,440,228)"/>
<rect x="491" y="223" width="14" height="10" rx="1" fill="#ddd" stroke="#444" stroke-width="1" transform="rotate(255,440,228)"/>
<rect x="491" y="223" width="14" height="10" rx="1" fill="#ddd" stroke="#444" stroke-width="1" transform="rotate(306,440,228)"/>
<text x="440" y="228" font-family="Arial,sans-serif" font-size="9" text-anchor="middle" fill="#999">G2</text>
<text x="440" y="300" font-family="Arial,sans-serif" font-size="10" font-weight="bold" text-anchor="middle" fill="#555">종동 기어 (120)</text>
<!-- 맞물림 표시 -->
<line x1="298" y1="228" x2="383" y2="228" stroke="#888" stroke-width="0.7" stroke-dasharray="4 3"/>
<text x="340" y="218" font-family="Arial,sans-serif" font-size="8" text-anchor="middle" fill="#bbb">맞물림</text>
<!-- 축 -->
<line x1="128" y1="228" x2="580" y2="228" stroke="#777" stroke-width="1" stroke-dasharray="8 4"/>
<!-- 치수선 -->
<line x1="100" y1="430" x2="580" y2="430" stroke="#555" stroke-width="1" marker-start="url(#mb-dim)" marker-end="url(#mb-dim)"/>
<line x1="100" y1="395" x2="100" y2="435" stroke="#999" stroke-width="0.7" stroke-dasharray="3 2"/>
<line x1="580" y1="395" x2="580" y2="435" stroke="#999" stroke-width="0.7" stroke-dasharray="3 2"/>
<text x="340" y="425" font-family="'Courier New',monospace" font-size="10" text-anchor="middle" fill="#555">L = 480 mm</text>
<!-- 참조번호 -->
<circle cx="56" cy="100" r="12" fill="#fff" stroke="#555" stroke-width="1.1"/>
<text x="56" y="104" font-family="Arial,sans-serif" font-size="9" font-weight="bold" text-anchor="middle" fill="#333">100</text>
<line x1="68" y1="100" x2="100" y2="115" stroke="#999" stroke-width="0.8" stroke-dasharray="3 2"/>
<!-- 타이틀 블록 -->
<line x1="14" y1="498" x2="666" y2="498" stroke="#888" stroke-width="0.8"/>
<line x1="222" y1="498" x2="222" y2="545" stroke="#ccc" stroke-width="0.5"/>
<line x1="444" y1="498" x2="444" y2="545" stroke="#ccc" stroke-width="0.5"/>
<text x="22" y="516" font-family="'Courier New',monospace" font-size="11" font-weight="bold" fill="#333">도 6</text>
<text x="22" y="532" font-family="Arial,sans-serif" font-size="9" fill="#777">기어 조립 단면도</text>
<text x="333" y="516" font-family="Arial,sans-serif" font-size="9" text-anchor="middle" fill="#999">SCALE : N.T.S  |  UNIT : mm</text>
<text x="654" y="516" font-family="'Courier New',monospace" font-size="8" text-anchor="end" fill="#aaa">PYPI AI · 특허청 기준</text>
<text x="654" y="531" font-family="Arial,sans-serif" font-size="7" text-anchor="end" fill="#bbb">AUTO GENERATED</text>
</svg>
